<svg xmlns="http://www.w3.org/2000/svg" viewBox="0 0 140 84" fill="none">
  <!-- K teal fills -->
  <rect x="64" y="8" width="13" height="72" rx="2" fill="#00AEAA"/>
  <path d="M134 8L96.6 41.6L134 80H115.8L82.2 45.8L97.3 31.1L115.2 13.2H134V8Z" fill="#00AEAA"/>
  <!-- J outline -->
  <path d="M56 8V53.5C56 69.2 44.9 80 28.8 80C20.7 80 13.3 77.3 8 72.6L15.5 62.7C19.3 65.8 23.5 67.3 28.1 67.3C36.3 67.3 42 62.2 42 53.3V8H56Z"
    fill="white" stroke="currentColor" stroke-width="3"/>
  <!-- K accent outline -->
  <path d="M97.6 52.5L111 66.2L97 80H81.4L89.6 71.7Z"
    fill="white" stroke="currentColor" stroke-width="3"/>
</svg>
